<svg width="1600" height="1200" viewBox="0 0 1600 1200" fill="none" xmlns="http://www.w3.org/2000/svg">
  <rect width="1600" height="1200" fill="#FAF8F2"/>
  <circle cx="1220" cy="320" r="220" fill="#E8F5ED"/>
  <circle cx="320" cy="900" r="260" fill="#E8F5ED"/>
  <rect x="220" y="260" width="1160" height="680" rx="48" fill="white" stroke="#0B1220" stroke-opacity="0.08" stroke-width="6"/>
  <rect x="300" y="330" width="420" height="60" rx="16" fill="#F4F0E4"/>
  <rect x="300" y="420" width="980" height="26" rx="12" fill="#F4F0E4"/>
  <rect x="300" y="470" width="860" height="26" rx="12" fill="#F4F0E4"/>
  <rect x="300" y="520" width="760" height="26" rx="12" fill="#F4F0E4"/>
  <rect x="300" y="610" width="520" height="260" rx="28" fill="#E8F5ED"/>
  <rect x="860" y="610" width="420" height="120" rx="24" fill="#F4F0E4"/>
  <rect x="860" y="750" width="420" height="120" rx="24" fill="#F4F0E4"/>
  <path d="M520 800c140-30 230-130 280-280 90 70 150 175 150 295 0 90-35 165-90 220-110 110-310 110-420 0-45-45-70-100-70-150 0-80 60-135 150-85z" fill="#2A8F47"/>
  <text x="300" y="365" fill="#0B1220" fill-opacity="0.55" font-size="26" font-family="ui-sans-serif, system-ui">Imagen placeholder (cámbiala en /public/images)</text>
</svg>

